<svg xmlns="http://www.w3.org/2000/svg" version="1.1" viewBox="-5.0 -10.0 110.0 135.0">
 <path d="m25.641 46.875c2.3047 0.007812 4.5898-0.44531 6.7188-1.3281-1.2812-0.51953-2.4961-1.1953-3.6094-2.0156-0.95703-0.6875-1.8477-1.4688-2.6562-2.3281-0.55859-0.5625-1.0781-1.1562-1.5625-1.7812l2.0938-1.5625c0.79297 1.0234 1.6992 1.9531 2.7031 2.7656 1.8086 1.5156 3.9492 2.5859 6.25 3.125l1.1406 0.28125c1.1289 0.19922 2.2734 0.29688 3.4219 0.29688 2.1562-0.011719 4.3008-0.31641 6.375-0.90625-0.18359-0.94531-0.41797-1.8789-0.70312-2.7969-0.22656-0.83594-0.5-1.6602-0.8125-2.4688-0.95703-2.4688-2.25-4.793-3.8438-6.9062l2.1094-1.5625c1.7461 2.3281 3.1602 4.8906 4.2031 7.6094 0.3125 0.84375 0.59375 1.6719 0.8125 2.4844 0.27734 0.97656 0.50391 1.9688 0.67188 2.9688 0.17578 0.9375 0.30078 1.8438 0.375 2.7188 0.33594 3.5156 0.035156 7.0625-0.89062 10.469-0.22656 0.75 0.13281 1.5508 0.84375 1.875l14.062 5.9688c0.1875 0.078125 0.39062 0.12109 0.59375 0.125 0.59375-0.015625 1.125-0.36719 1.375-0.90625 0.67188-1.5625 16.438-37.5 7.3906-49.203-8.0625-10.484-32.078-3.1406-38.328-0.98438-0.32812 0.09375-0.60938 0.20312-0.82812 0.28125-0.23828-0.14844-0.48438-0.28125-0.73438-0.40625-2.2383-0.97656-4.6523-1.4766-7.0938-1.4688-4.8164-0.14453-9.4883 1.6719-12.945 5.0273-3.4609 3.3594-5.4102 7.9727-5.4102 12.793 0 4.8203 1.9492 9.4336 5.4102 12.793 3.457 3.3555 8.1289 5.1719 12.945 5.0273z"/>
 <path d="m64.578 66.484c-0.19141 0.015625-0.38672 0.015625-0.57812 0-0.53516 0.011719-1.0664-0.082031-1.5625-0.28125h-0.09375l-14.062-5.9688c-0.18359-0.074219-0.35938-0.16406-0.53125-0.26562l-0.15625-0.10938c-0.20312-0.12891-0.39453-0.28125-0.5625-0.45312-0.17188-0.15625-0.32812-0.32812-0.46875-0.51562-0.33594-0.46875-0.57031-1-0.6875-1.5625-3.0156 2.375-6.8125 6.1875-6.8125 10.344 0 2.7188 1.5625 5.0625 4.8438 6.9375 2.875 1.8125 6.1836 2.8164 9.5781 2.9062 2.3672 0.035156 4.6875-0.63281 6.6719-1.9219 3.1367-2.1406 5.1328-5.5898 5.4219-9.375l-0.46875 0.15625c-0.17188 0.058594-0.35156 0.09375-0.53125 0.10938z"/>
 <path d="m38.719 60.938h-6.5469c-0.86328 0-1.5625 0.69922-1.5625 1.5625v8.75c0 0.41406 0.16406 0.8125 0.45703 1.1055 0.29297 0.29297 0.69141 0.45703 1.1055 0.45703h5.7656c-0.61328-0.91797-1.0586-1.9414-1.3125-3.0156-0.16797-0.67969-0.25391-1.3789-0.25-2.0781 0.003906-1.2734 0.25391-2.5391 0.73438-3.7188 0.41016-1.082 0.94922-2.1133 1.6094-3.0625z"/>
 <path d="m72.922 60.938h-3.7969c-0.34375 0.8125-0.64062 1.5625-0.90625 2.1094 0.015625 0.29688 0.015625 0.59375 0 0.89062 0.054688 1.9453-0.20312 3.8867-0.76562 5.75-0.30469 1.0859-0.73438 2.1367-1.2812 3.125h6.7031c0.41406 0 0.8125-0.16406 1.1055-0.45703s0.45703-0.69141 0.45703-1.1055v-8.75c0-0.84375-0.67188-1.5391-1.5156-1.5625z"/>
 <path d="m79.156 76.781h8.6562c-0.13672-3.1172-1.2461-6.1133-3.1758-8.5664-1.9258-2.4531-4.5781-4.2383-7.5742-5.1055v8.1406c0 0.44531-0.074219 0.89062-0.21875 1.3125 1.3047 1.043 2.1367 2.5586 2.3125 4.2188z"/>
 <path d="m76.328 79.422h14.359c0.82812 0 1.5 0.82812 1.5 1.5v9.2812c0 0.82812-0.67188 1.5-1.5 1.5h-14.359c-0.82812 0-1.5-0.82812-1.5-1.5v-9.2812c0-0.82812 0.67188-1.5 1.5-1.5z"/>
 <path d="m28.031 66.297v-3.125c-2.9961 0.87109-5.6406 2.6562-7.5664 5.1094-1.9258 2.4531-3.0352 5.4453-3.168 8.5625h8.6406c0.17578-1.6602 1.0078-3.1758 2.3125-4.2188-0.14453-0.42188-0.21875-0.86719-0.21875-1.3125z"/>
 <path d="m14.406 79.422h14.375c0.82812 0 1.5 0.82812 1.5 1.5v9.2812c0 0.82812-0.67188 1.5-1.5 1.5h-14.375c-0.82812 0-1.5-0.82812-1.5-1.5v-9.2812c0-0.82812 0.67188-1.5 1.5-1.5z"/>
</svg>
